<svg width="106" height="76" viewBox="0 0 106 76" fill="none" xmlns="http://www.w3.org/2000/svg">
<path d="M44.6534 47.393C44.6534 47.393 42.2687 48.9967 43.3538 50.3741C43.3538 50.3741 44.3759 52.0489 46.4893 50.2965C46.4893 50.2965 47.3157 49.6045 47.4482 48.6152L47.6375 46.9339C47.6375 46.9274 46.3 46.3972 44.6534 47.393Z" fill="white"/>
<path d="M61.3653 47.393C61.3653 47.393 63.75 48.9967 62.6586 50.3741C62.6586 50.3741 61.6366 52.0489 59.5231 50.2965C59.5231 50.2965 58.6967 49.6045 58.5642 48.6152L58.3687 46.9339C58.375 46.9274 59.7187 46.3972 61.3653 47.393Z" fill="white"/>
<path d="M48.0597 35.0684C49.2268 31.6218 57.5102 31.6929 58.0906 35.7539C58.3682 37.6873 57.3084 39.1229 55.4851 39.4398C54.5767 39.595 53.6177 39.2328 52.703 39.3169C51.5737 39.4139 50.5769 39.5174 49.4981 38.916C48.1796 38.1788 47.5613 36.5363 48.0597 35.0684Z" fill="white"/>
<path d="M33.6887 52.6115C29.6574 52.6115 23.7209 52.6115 23.7209 52.6115H8.22661L4.51707 52.5857C2.738 52.5857 1.56457 52.1459 0.839064 51.4346C0.113557 50.7298 0 49.8762 0 49.4817C0 49.4106 1.44537e-07 49.3459 0.00630889 49.3007C0.0189264 47.6323 1.28699 46.6559 2.25222 46.339C3.26162 45.964 4.19532 45.964 4.41612 45.9575C4.44136 45.9575 4.46659 45.9575 4.48552 45.9575H7.60835C9.29279 30.9681 16.9642 19.904 17.0273 19.807C19.1471 16.9035 21.5002 14.2716 24.0363 11.9437C26.7806 9.42176 29.7521 7.25548 32.9001 5.47719C37.1333 3.09105 41.7008 1.4227 46.4829 0.594985C48.5837 0.226394 50.7791 0.0259326 52.9683 6.65514e-05C53.5361 -0.00639995 53.9966 0.459188 54.0092 1.04117C54.0155 1.62316 53.5676 2.09521 52.9998 2.10815C50.9179 2.13401 48.8234 2.32801 46.8299 2.67073C42.2812 3.45964 37.9345 5.0504 33.8906 7.32661C30.8876 9.02084 28.0487 11.103 25.4116 13.5151C22.9765 15.7525 20.7179 18.2809 18.6928 21.0485C18.6928 21.0485 18.226 21.721 17.4815 23.0014C16.7308 24.2818 15.7151 26.1506 14.6615 28.485C12.5418 33.1603 10.2517 39.6979 9.56407 47.1085C9.5136 47.6517 9.07198 48.0591 8.54205 48.0591H4.45398H4.42874C4.42243 48.0591 4.41612 48.0591 4.40982 48.0591C4.2521 48.0591 3.53921 48.0914 2.96511 48.3113C2.33424 48.5958 2.0882 48.7769 2.06927 49.3589L2.05665 49.4753C2.06296 49.527 2.06296 49.7081 2.25853 49.9085C2.46041 50.109 3.03451 50.4711 4.51707 50.4711L8.22661 50.497H23.7146C23.7209 50.497 29.6511 50.497 33.6824 50.497C34.2187 50.4905 34.4899 50.3741 34.6855 50.2189C34.8811 50.0637 35.064 49.8051 35.2154 49.3653C35.5246 48.4988 35.6003 47.018 35.6823 45.382C36.0924 37.3764 39.6126 31.2203 45.8015 28.0582C47.2084 27.3404 49.2146 26.8037 50.9621 26.4739C51.4731 26.3834 52.1923 26.3511 53.0061 26.3381C53.5739 26.3317 54.0408 26.7972 54.0471 27.3792C54.0534 27.9612 53.5991 28.4397 53.0314 28.4462C52.2869 28.4527 51.574 28.4979 51.328 28.5497C49.7193 28.8407 47.7888 29.3838 46.7226 29.94C41.2403 32.7852 38.1553 38.0296 37.7326 45.5048C37.6695 46.7141 37.6254 47.9104 37.4235 49.0097C37.2216 50.0896 36.862 51.1566 35.9473 51.8937C35.3479 52.3723 34.5656 52.6115 33.7013 52.6115C33.695 52.6115 33.695 52.6115 33.6887 52.6115Z" fill="white"/>
<path d="M70.0715 51.8939C69.4659 51.4153 69.0937 50.7558 68.8602 50.0703C68.3997 48.6994 68.3744 47.1216 68.2798 45.505C67.8508 38.0361 64.7722 32.7854 59.2835 29.9401C58.2174 29.384 56.2869 28.8408 54.6845 28.5498C54.4384 28.5045 53.7255 28.4528 52.9811 28.4463C52.4133 28.4399 51.9591 27.9613 51.9654 27.3794C51.9717 26.7974 52.4386 26.3318 53.0063 26.3383C53.8202 26.3512 54.5331 26.3835 55.0504 26.474C56.8042 26.7974 58.8104 27.3406 60.2172 28.0583C66.4061 31.2205 69.9327 37.3766 70.3365 45.3821C70.3996 46.6107 70.45 47.7488 70.6141 48.6089C70.7718 49.4883 71.0431 49.9992 71.3333 50.2255C71.5288 50.3807 71.8001 50.4971 72.3363 50.5036C76.3676 50.5036 82.3042 50.5036 82.3042 50.5036H97.7858L101.508 50.4777C102.984 50.4777 103.558 50.122 103.76 49.9151C103.962 49.7146 103.956 49.5401 103.962 49.4819L103.956 49.3655C103.937 48.7835 103.691 48.6024 103.06 48.3179C102.492 48.1045 101.786 48.0657 101.622 48.0657C101.609 48.0657 101.603 48.0657 101.596 48.0657H101.571H97.483C96.9531 48.0657 96.5115 47.6518 96.461 47.1151C95.4264 35.9927 90.7831 26.8426 88.5372 23.0015C87.7928 21.7212 87.3259 21.0487 87.3386 21.0681C85.2945 18.2745 83.036 15.7397 80.6071 13.5087C77.9764 11.0967 75.1311 9.01449 72.1282 7.32674C68.0843 5.05053 63.7375 3.45977 59.1889 2.67086C57.1953 2.32813 55.1008 2.13414 53.019 2.10827V2.11474C52.4512 2.1018 51.9969 1.62975 52.0032 1.04776C52.0096 0.46578 52.4764 0.000191848 53.0442 0.00665835C55.2333 0.0325244 57.4288 0.232986 59.5296 0.601576C64.3116 1.42929 68.8855 3.09765 73.1123 5.48378C76.2541 7.25561 79.2255 9.42835 81.9698 11.9503C84.5059 14.2782 86.8591 16.9101 88.9914 19.8394C89.0356 19.917 96.707 30.9812 98.3915 45.9705H101.508C101.527 45.9705 101.552 45.9705 101.584 45.9705C101.805 45.977 102.738 45.977 103.748 46.3521C104.719 46.6689 105.987 47.6454 105.994 49.3267C106 49.3719 106 49.4301 106 49.4948C106.006 49.8892 105.886 50.7364 105.161 51.4477C104.435 52.159 103.268 52.5987 101.495 52.5987L97.7669 52.6246H82.2789C82.2789 52.6246 76.3424 52.6246 72.3111 52.6246C72.3111 52.6246 72.2985 52.6246 72.2922 52.6246C71.4531 52.6116 70.6708 52.3788 70.0715 51.8939Z" fill="white"/>
<path d="M16.1636 74.1326V62.246C16.1636 61.6302 16.303 61.1675 16.5751 60.8579C16.8506 60.5484 17.2057 60.3953 17.6372 60.3953C18.0853 60.3953 18.4504 60.5484 18.7292 60.8511C19.0047 61.1573 19.1474 61.62 19.1474 62.246V74.1326C19.1474 74.7551 19.008 75.2246 18.7292 75.5342C18.4504 75.8438 18.0853 75.9969 17.6372 75.9969C17.2124 75.9969 16.8572 75.8438 16.5785 75.5308C16.303 75.2178 16.1636 74.7517 16.1636 74.1326Z" fill="white"/>
<path d="M34.7469 70.9755C34.7469 71.4552 34.6308 71.9757 34.4018 72.5336C34.1661 73.095 33.8077 73.6393 33.3131 74.1802C32.8153 74.7177 32.1847 75.16 31.4146 75.4934C30.6446 75.8302 29.7485 75.9969 28.7229 75.9969C27.9463 75.9969 27.2426 75.922 26.6054 75.7724C25.9714 75.6193 25.3906 75.3845 24.8762 75.0681C24.3551 74.7483 23.8771 74.3265 23.4457 73.806C23.054 73.3331 22.7254 72.8024 22.4467 72.2172C22.1745 71.6321 21.9687 71.0061 21.8293 70.3393C21.6899 69.6759 21.6235 68.9683 21.6235 68.2199C21.6235 67.0054 21.7961 65.9167 22.1413 64.954C22.4832 63.9946 22.9777 63.1747 23.6216 62.4909C24.2655 61.8071 25.0189 61.2866 25.8818 60.9294C26.7415 60.5756 27.6641 60.3953 28.6433 60.3953C29.8348 60.3953 30.8969 60.6368 31.8262 61.1233C32.7555 61.6098 33.4691 62.2119 33.9636 62.9298C34.4582 63.6476 34.7038 64.3246 34.7038 64.9642C34.7038 65.3146 34.5843 65.6242 34.342 65.8895C34.103 66.1583 33.811 66.2909 33.4658 66.2909C33.0874 66.2909 32.802 66.1957 32.6095 66.012C32.4203 65.8283 32.2079 65.5085 31.9722 65.056C31.5839 64.3076 31.1292 63.7496 30.6015 63.3788C30.0771 63.008 29.4299 62.8209 28.6565 62.8209C27.4351 62.8209 26.456 63.2972 25.7325 64.2531C25.0056 65.2091 24.6438 66.5631 24.6438 68.3185C24.6438 69.4922 24.8032 70.4686 25.1251 71.2477C25.447 72.0267 25.9018 72.6051 26.4925 72.9929C27.08 73.3773 27.7704 73.5678 28.5603 73.5678C29.4166 73.5678 30.1401 73.3501 30.7342 72.9181C31.3283 72.4826 31.7731 71.843 32.0751 70.9959C32.2012 70.5979 32.3572 70.2747 32.5464 70.023C32.7323 69.7712 33.0343 69.6487 33.4492 69.6487C33.8077 69.6487 34.1097 69.778 34.3653 70.0264C34.6175 70.2815 34.7469 70.5979 34.7469 70.9755Z" fill="white"/>
<path d="M46.8546 63.0111H40.1369V66.7159H46.3235C46.7782 66.7159 47.1168 66.818 47.3425 67.0289C47.5648 67.2398 47.6744 67.512 47.6744 67.8556C47.6744 68.1992 47.5648 68.4816 47.3425 68.6925C47.1234 68.9102 46.7815 69.0191 46.3202 69.0191H40.1369V73.309H47.0869C47.5549 73.309 47.9067 73.4213 48.1457 73.6458C48.3846 73.867 48.5041 74.1629 48.5041 74.5372C48.5041 74.8944 48.3846 75.1835 48.1457 75.4047C47.91 75.6258 47.5549 75.7381 47.0869 75.7381H38.9819C38.3313 75.7381 37.8667 75.5918 37.5812 75.2958C37.2991 74.9998 37.1531 74.5235 37.1531 73.8636V62.5247C37.1531 62.0824 37.2161 61.7286 37.3456 61.4462C37.4717 61.1707 37.6708 60.9665 37.943 60.8407C38.2118 60.7114 38.5603 60.6501 38.9819 60.6501H46.8512C47.3292 60.6501 47.681 60.759 47.9133 60.9767C48.1423 61.1911 48.2585 61.4734 48.2585 61.8238C48.2585 62.1811 48.1423 62.4702 47.9133 62.6845C47.6843 62.9023 47.3292 63.0111 46.8546 63.0111Z" fill="white"/>
<path d="M60.1573 63.1744H56.9047V74.1323C56.9047 74.7617 56.7686 75.2311 56.4931 75.5373C56.2209 75.8435 55.8658 75.9932 55.431 75.9932C54.9896 75.9932 54.6278 75.8401 54.3523 75.5305C54.0735 75.2209 53.9341 74.7549 53.9341 74.1289V63.171H50.6815C50.1737 63.171 49.7953 63.0554 49.5464 62.8274C49.2975 62.5961 49.178 62.2933 49.178 61.9157C49.178 61.5244 49.3074 61.2183 49.563 60.9869C49.8219 60.7624 50.1936 60.6467 50.6848 60.6467H60.1606C60.6751 60.6467 61.0601 60.7658 61.3123 60.9971C61.5612 61.2285 61.6874 61.5347 61.6874 61.9123C61.6874 62.2899 61.5612 62.5927 61.3057 62.824C61.0468 63.0588 60.6651 63.1744 60.1573 63.1744Z" fill="white"/>
<path d="M67.1833 69.2879H66.1379V74.1357C66.1379 74.7753 66.0018 75.2448 65.7263 75.5442C65.4508 75.847 65.0924 75.9966 64.6509 75.9966C64.1796 75.9966 63.8079 75.8436 63.5457 75.5238C63.2835 75.2108 63.1541 74.7447 63.1541 74.1357V62.5281C63.1541 61.8681 63.2968 61.3884 63.5855 61.0992C63.8743 60.8033 64.3423 60.6536 64.9828 60.6536H69.8286C70.499 60.6536 71.0699 60.6842 71.5479 60.742C72.0225 60.7999 72.4506 60.9189 72.8323 61.0992C73.2937 61.2965 73.7019 61.5823 74.057 61.9531C74.4122 62.324 74.681 62.756 74.8669 63.2425C75.0494 63.7358 75.1424 64.2563 75.1424 64.804C75.1424 65.9267 74.8337 66.8282 74.213 67.4984C73.5957 68.172 72.6564 68.6483 71.3985 68.9307C71.9262 69.2198 72.434 69.6451 72.9153 70.2064C73.3965 70.7711 73.8247 71.3665 74.2064 72.0027C74.5848 72.6389 74.8768 73.2104 75.0892 73.7207C75.2983 74.2344 75.4079 74.5848 75.4079 74.7787C75.4079 74.976 75.3448 75.1734 75.222 75.3673C75.0992 75.5646 74.9299 75.7211 74.7142 75.8333C74.5018 75.9456 74.2529 76 73.9707 76C73.6355 76 73.3534 75.9184 73.1244 75.7585C72.8987 75.5986 72.7029 75.3911 72.5369 75.1495C72.3743 74.9012 72.1486 74.5372 71.8665 74.0575L70.6716 72.0197C70.2468 71.2746 69.8618 70.7031 69.5233 70.3153C69.1814 69.9241 68.8429 69.6553 68.4944 69.5124C68.1492 69.3559 67.7111 69.2879 67.1833 69.2879ZM68.8893 62.9499H66.1345V67.097H68.8063C69.5233 67.097 70.1273 67.0357 70.6152 66.9065C71.1031 66.7806 71.4782 66.5663 71.737 66.2601C71.9959 65.9539 72.122 65.5355 72.122 65.0013C72.122 64.5829 72.0192 64.2121 71.8101 63.8957C71.6043 63.5759 71.3155 63.3378 70.9471 63.1813C70.5986 63.0214 69.9116 62.9499 68.8893 62.9499Z" fill="white"/>
<path d="M84.1672 60.3953C85.6972 60.3953 87.0083 60.7116 88.1002 61.3444C89.1955 61.9772 90.0252 62.8821 90.5828 64.0524C91.1471 65.2227 91.4292 66.5971 91.4292 68.1757C91.4292 69.3391 91.2732 70.4006 90.9678 71.3531C90.6592 72.3091 90.1978 73.1358 89.5838 73.8332C88.9665 74.534 88.2097 75.0681 87.3169 75.439C86.4175 75.8098 85.3919 75.9935 84.2336 75.9935C83.0819 75.9935 82.0496 75.8064 81.1369 75.4253C80.2275 75.0443 79.4674 74.5068 78.8567 73.8162C78.2494 73.1222 77.7913 72.2887 77.476 71.3123C77.1674 70.3393 77.0081 69.2881 77.0081 68.1552C77.0081 66.9952 77.1707 65.9303 77.4993 64.9642C77.8212 63.9946 78.2925 63.1747 78.9065 62.4943C79.5239 61.8173 80.2707 61.2968 81.1568 60.9362C82.0397 60.5756 83.0453 60.3953 84.1672 60.3953ZM88.4056 68.1552C88.4056 67.0496 88.233 66.0936 87.8812 65.284C87.5327 64.4743 87.0381 63.8653 86.3909 63.4503C85.7437 63.0352 85.0036 62.8243 84.1639 62.8243C83.5698 62.8243 83.0188 62.94 82.5143 63.1713C82.0098 63.3992 81.575 63.736 81.2099 64.1715C80.8415 64.6104 80.5561 65.1751 80.3437 65.8555C80.1346 66.5393 80.025 67.3047 80.025 68.1552C80.025 69.016 80.1312 69.7882 80.3437 70.4822C80.5561 71.1728 80.8515 71.7478 81.2365 72.2036C81.6215 72.6595 82.0629 73.0031 82.5608 73.2276C83.0619 73.4556 83.6063 73.5679 84.2037 73.5679C84.9637 73.5679 85.6641 73.3739 86.3046 72.9827C86.9452 72.5915 87.453 71.9893 87.8314 71.1728C88.2164 70.3529 88.4056 69.3494 88.4056 68.1552Z" fill="white"/>
</svg>
